<?xml version="1.0" encoding="utf-8"?>
<!-- Generator: Adobe Illustrator 23.0.1, SVG Export Plug-In . SVG Version: 6.00 Build 0)  -->
<svg version="1.1" id="Layer_1" xmlns="http://www.w3.org/2000/svg" xmlns:xlink="http://www.w3.org/1999/xlink" x="0px" y="0px"
	 viewBox="0 0 144 144" style="enable-background:new 0 0 144 144;" xml:space="preserve">
<style type="text/css">
	.st0{fill:#FDDD00;}
</style>
<path class="st0" d="M138.47,65.25c-0.68-4.32-3.51-7.18-7.72-7.74c-2.73-0.36-5.11,0.66-7.33,2.14c-0.87,0.58-1.68,1.24-2.64,1.95
	c-2.9-10.58-8.61-19.24-16.92-26.25C96.55,29.18,81.7,22.6,75.25,22.8c1.04,0.7,2.02,1.35,2.98,2.01c0.97,0.65,1.93,1.32,2.89,1.97
	c-7.88-2.83-15.98-2.67-24.13-1.96c3.56,0.77,7.13,1.53,10.69,2.3c-1.01,0.2-1.99,0.29-2.97,0.3c-6.29,0.07-12.47,0.85-18.5,2.67
	c-5.68,1.7-10.88,4.27-15.17,8.47c-0.42,0.41-0.82,0.84-1.21,1.28c-0.41,0.46-0.81,0.94-1.19,1.43c-0.33,0.44-0.64,0.89-0.96,1.34
	c5.23-2.42,10.39-4.76,16.21-5.17c-11.07,4.64-19.19,11.99-22.32,24.19c-0.41-0.34-0.67-0.61-0.98-0.8c-1.38-0.87-2.7-1.9-4.18-2.55
	c-5.14-2.27-10.67,0.31-12.19,5.63c-0.32,1.12-0.48,2.31-0.52,3.48C3.52,73.04,5.14,78.27,7.55,83.3c2.15,4.48,4.91,8.53,8.86,11.64
	c3.09,2.43,6.52,3.77,10.55,3.01c0.25-0.05,0.71,0.27,0.86,0.54c5.09,9.03,11.88,16.43,20.79,21.79c5.89,3.55,12.28,5.73,19.16,6.25
	c10.43,0.8,19.91-2.03,28.53-7.85c7.4-4.99,13.19-11.49,17.62-19.21c0.64-1.11,1.18-1.98,2.64-1.38c0.16,0.07,0.36,0.03,0.55,0.04
	c3.8,0.15,6.92-1.44,9.67-3.86c5.16-4.56,8.32-10.39,10.39-16.86C138.42,73.47,139.13,69.42,138.47,65.25 M23.17,88.8
	c-1.52-1.56-3.13-3.05-4.55-4.7c-1.99-2.31-3.61-4.87-4.26-7.91c-0.33-1.51-0.4-3.01,0.29-4.46c1.12-2.37,3.6-2.33,5.55-0.8
	c0.21,0.17,0.25,0.67,0.24,1.02c-0.08,5.2,1.03,10.19,2.53,15.12c0.15,0.52,0.3,1.04,0.45,1.56C23.33,88.68,23.25,88.74,23.17,88.8
	 M95.07,92.42c-0.3,0.2-0.64,0.62-0.65,0.96c-0.35,7.57-4.09,13.22-10.02,17.58c-3.75,2.75-7.95,4.4-12.65,4.53
	c-5.4,0.15-10.15-1.69-14.39-4.89c-4.32-3.27-7.39-7.46-8.73-12.78c-0.34-1.37-0.45-2.8-0.59-4.22c-0.05-0.55-0.21-0.88-0.69-1.18
	c-8.06-5.14-11.98-12.48-11.49-22.04c0.54-10.57,9.12-19.89,19.62-21.52c5.32-0.83,10.35,0,15.12,2.49
	c0.32,0.17,0.89,0.14,1.24-0.03c8.55-4.21,16.81-3.73,24.73,1.55c3.78,2.52,6.43,6.03,8.2,10.2c1.23,2.88,1.8,5.91,1.8,10.6
	C106.32,80.9,102.54,87.7,95.07,92.42 M126.94,79.24c-1.78,3.77-4.59,6.71-7.73,9.36c-0.03,0.03-0.12,0.01-0.24,0.03
	c0.45-1.62,0.93-3.21,1.35-4.81c1.05-4.02,1.67-8.11,1.67-12.28c0-0.21,0.07-0.52,0.22-0.62c1.11-0.8,2.31-1.4,3.71-0.91
	c1.33,0.47,1.93,1.55,2.19,2.88C128.54,75.16,127.9,77.24,126.94,79.24"/>
<path class="st0" d="M66.75,86.38c0.01,0,0.03,0,0.05,0c0.48-0.02,1.48-0.27,1.88-1c0.4-0.73,0.56-1.56,0.69-2.34
	c0.11-0.63-0.42-1.48-1.03-1.65c-0.55-0.15-1.39,0.05-1.76,0.57c-0.35,0.48-0.73,0.95-0.89,1.5c-0.06,0.22-0.01,1.92,0.02,2.04
	C65.88,86.04,66.11,86.38,66.75,86.38 M67.13,84.24c0.17-0.32,0.34-0.63,0.52-0.92c-0.09,0.46-0.2,0.9-0.38,1.24
	c-0.03,0.02-0.08,0.06-0.15,0.09c0-0.01-0.01-0.02-0.01-0.03c-0.02-0.05-0.05-0.11-0.08-0.17C67.06,84.37,67.1,84.3,67.13,84.24"/>
<path class="st0" d="M73.78,85.51c0.27,0.51,1.03,0.9,1.66,0.9c0.12,0,0.24-0.01,0.34-0.05c0.53-0.15,0.68-0.43,0.89-0.84
	c0.06-0.12,0.19-0.85,0.23-0.99c0.06-0.19-0.18-0.95-0.19-1c0.02,0.04,0.04,0.08,0-0.01c-0.25-0.51-0.52-1.03-0.86-1.51
	c-0.39-0.55-1.27-0.76-1.81-0.62c-0.69,0.17-1.16,1.12-1.03,1.75C73.19,84.1,73.44,84.87,73.78,85.51 M75.25,84.27
	c0.04,0.08,0.08,0.15,0.12,0.24c-0.01,0.02-0.03,0.05-0.04,0.07c-0.02,0.04-0.05,0.09-0.07,0.14c-0.02-0.01-0.04-0.02-0.05-0.03
	c-0.2-0.39-0.36-0.86-0.49-1.42C74.9,83.57,75.07,83.91,75.25,84.27"/>
<path class="st0" d="M59.52,94.51c2.16,4.48,6.58,7.55,11.68,7.55c5.11,0,9.53-3.07,11.68-7.55c-3.08,2.86-7.18,4.61-11.68,4.61
	C66.7,99.13,62.6,97.38,59.52,94.51"/>
<path class="st0" d="M102.86,62.02c-1.61-0.07-3.22-0.23-4.84-0.31c-6.67-0.33-13.34-0.82-19.95,0.87
	c-3.44,0.88-6.94,1.72-10.6,0.71c-7.21-2.01-14.59-2.27-22.02-1.68c-2.28,0.18-4.56,0.32-6.96,0.48c0,1.49-0.02,2.79,0.02,4.08
	c0.01,0.26,0.26,0.67,0.47,0.73c1.69,0.45,1.8,1.81,1.9,3.18c0.19,2.76,0.79,5.41,2.2,7.82c1.38,2.36,3.34,4.01,6.11,4.41
	c1.55,0.23,3.14,0.37,4.69,0.27c4-0.27,7.66-1.53,9.93-5.06c1.36-2.12,2.25-4.55,3.3-6.87c0.84-1.85,1.76-3.83,4.05-3.8
	c2.2,0.02,3.17,1.93,3.92,3.78c0.57,1.41,1.04,2.87,1.69,4.24c1.58,3.34,3.9,6.02,7.61,6.9c2.32,0.55,4.77,0.76,7.16,0.74
	c2.75-0.03,5.25-1.08,6.8-3.49c0.98-1.52,1.77-3.23,2.31-4.95c0.51-1.65,0.47-3.46,0.89-5.14c0.18-0.72,0.93-1.28,1.43-1.92
	c0.24-0.31,0.64-0.61,0.7-0.96c0.15-0.93,0.14-1.88,0.23-2.81C103.97,62.43,103.68,62.06,102.86,62.02 M45.4,72.69
	c-0.44-2.52-0.8-4.61-1.2-6.92c2.47-0.12,5.06-0.24,7.66-0.36C49.16,67.21,47.08,69.55,45.4,72.69 M80.63,73.64
	c-0.98-2.44-1.85-4.59-2.79-6.93c3.15-0.51,6.25-1.02,9.35-1.52c0.07,0.15,0.13,0.3,0.2,0.45C84.35,67.5,82.27,70.18,80.63,73.64"/>
</svg>
